<?xml version="1.0" standalone="no"?>
<!DOCTYPE svg PUBLIC "-//W3C//DTD SVG 1.1//EN" "http://www.w3.org/Graphics/SVG/1.1/DTD/svg11.dtd">
<svg version="1.1" width="1200" height="454" onload="init(evt)" viewBox="0 0 1200 454" xmlns="http://www.w3.org/2000/svg" xmlns:xlink="http://www.w3.org/1999/xlink">
<!-- Flame graph stack visualization. See https://github.com/brendangregg/FlameGraph for latest version, and http://www.brendangregg.com/flamegraphs.html for examples. -->
<!-- NOTES:  -->
<defs>
	<linearGradient id="background" y1="0" y2="1" x1="0" x2="0" >
		<stop stop-color="#eeeeee" offset="5%" />
		<stop stop-color="#eeeeb0" offset="95%" />
	</linearGradient>
</defs>
<style type="text/css">
	text { font-family:Verdana; font-size:12px; fill:rgb(0,0,0); }
	#search, #ignorecase { opacity:0.1; cursor:pointer; }
	#search:hover, #search.show, #ignorecase:hover, #ignorecase.show { opacity:1; }
	#subtitle { text-anchor:middle; font-color:rgb(160,160,160); }
	#title { text-anchor:middle; font-size:17px}
	#unzoom { cursor:pointer; }
	#frames > *:hover { stroke:black; stroke-width:0.5; cursor:pointer; }
	.hide { display:none; }
	.parent { opacity:0.5; }
</style>
<script type="text/ecmascript">
<![CDATA[
	"use strict";
	var details, searchbtn, unzoombtn, matchedtxt, svg, searching, currentSearchTerm, ignorecase, ignorecaseBtn;
	function init(evt) {
		details = document.getElementById("details").firstChild;
		searchbtn = document.getElementById("search");
		ignorecaseBtn = document.getElementById("ignorecase");
		unzoombtn = document.getElementById("unzoom");
		matchedtxt = document.getElementById("matched");
		svg = document.getElementsByTagName("svg")[0];
		searching = 0;
		currentSearchTerm = null;

		// use GET parameters to restore a flamegraphs state.
		var params = get_params();
		if (params.x && params.y)
			zoom(find_group(document.querySelector('[x="' + params.x + '"][y="' + params.y + '"]')));
                if (params.s) search(params.s);
	}

	// event listeners
	window.addEventListener("click", function(e) {
		var target = find_group(e.target);
		if (target) {
			if (target.nodeName == "a") {
				if (e.ctrlKey === false) return;
				e.preventDefault();
			}
			if (target.classList.contains("parent")) unzoom(true);
			zoom(target);
			if (!document.querySelector('.parent')) {
				// we have basically done a clearzoom so clear the url
				var params = get_params();
				if (params.x) delete params.x;
				if (params.y) delete params.y;
				history.replaceState(null, null, parse_params(params));
				unzoombtn.classList.add("hide");
				return;
			}

			// set parameters for zoom state
			var el = target.querySelector("rect");
			if (el && el.attributes && el.attributes.y && el.attributes._orig_x) {
				var params = get_params()
				params.x = el.attributes._orig_x.value;
				params.y = el.attributes.y.value;
				history.replaceState(null, null, parse_params(params));
			}
		}
		else if (e.target.id == "unzoom") clearzoom();
		else if (e.target.id == "search") search_prompt();
		else if (e.target.id == "ignorecase") toggle_ignorecase();
	}, false)

	// mouse-over for info
	// show
	window.addEventListener("mouseover", function(e) {
		var target = find_group(e.target);
		if (target) details.nodeValue = "Function: " + g_to_text(target);
	}, false)

	// clear
	window.addEventListener("mouseout", function(e) {
		var target = find_group(e.target);
		if (target) details.nodeValue = ' ';
	}, false)

	// ctrl-F for search
	// ctrl-I to toggle case-sensitive search
	window.addEventListener("keydown",function (e) {
		if (e.keyCode === 114 || (e.ctrlKey && e.keyCode === 70)) {
			e.preventDefault();
			search_prompt();
		}
		else if (e.ctrlKey && e.keyCode === 73) {
			e.preventDefault();
			toggle_ignorecase();
		}
	}, false)

	// functions
	function get_params() {
		var params = {};
		var paramsarr = window.location.search.substr(1).split('&');
		for (var i = 0; i < paramsarr.length; ++i) {
			var tmp = paramsarr[i].split("=");
			if (!tmp[0] || !tmp[1]) continue;
			params[tmp[0]]  = decodeURIComponent(tmp[1]);
		}
		return params;
	}
	function parse_params(params) {
		var uri = "?";
		for (var key in params) {
			uri += key + '=' + encodeURIComponent(params[key]) + '&';
		}
		if (uri.slice(-1) == "&")
			uri = uri.substring(0, uri.length - 1);
		if (uri == '?')
			uri = window.location.href.split('?')[0];
		return uri;
	}
	function find_child(node, selector) {
		var children = node.querySelectorAll(selector);
		if (children.length) return children[0];
	}
	function find_group(node) {
		var parent = node.parentElement;
		if (!parent) return;
		if (parent.id == "frames") return node;
		return find_group(parent);
	}
	function orig_save(e, attr, val) {
		if (e.attributes["_orig_" + attr] != undefined) return;
		if (e.attributes[attr] == undefined) return;
		if (val == undefined) val = e.attributes[attr].value;
		e.setAttribute("_orig_" + attr, val);
	}
	function orig_load(e, attr) {
		if (e.attributes["_orig_"+attr] == undefined) return;
		e.attributes[attr].value = e.attributes["_orig_" + attr].value;
		e.removeAttribute("_orig_"+attr);
	}
	function g_to_text(e) {
		var text = find_child(e, "title").firstChild.nodeValue;
		return (text)
	}
	function g_to_func(e) {
		var func = g_to_text(e);
		// if there's any manipulation we want to do to the function
		// name before it's searched, do it here before returning.
		return (func);
	}
	function update_text(e) {
		var r = find_child(e, "rect");
		var t = find_child(e, "text");
		var w = parseFloat(r.attributes.width.value) -3;
		var txt = find_child(e, "title").textContent.replace(/\([^(]*\)$/,"");
		t.attributes.x.value = parseFloat(r.attributes.x.value) + 3;

		// Smaller than this size won't fit anything
		if (w < 2 * 12 * 0.59) {
			t.textContent = "";
			return;
		}

		t.textContent = txt;
		var sl = t.getSubStringLength(0, txt.length);
		// check if only whitespace or if we can fit the entire string into width w
		if (/^ *$/.test(txt) || sl < w)
			return;

		// this isn't perfect, but gives a good starting point
		// and avoids calling getSubStringLength too often
		var start = Math.floor((w/sl) * txt.length);
		for (var x = start; x > 0; x = x-2) {
			if (t.getSubStringLength(0, x + 2) <= w) {
				t.textContent = txt.substring(0, x) + "..";
				return;
			}
		}
		t.textContent = "";
	}

	// zoom
	function zoom_reset(e) {
		if (e.attributes != undefined) {
			orig_load(e, "x");
			orig_load(e, "width");
		}
		if (e.childNodes == undefined) return;
		for (var i = 0, c = e.childNodes; i < c.length; i++) {
			zoom_reset(c[i]);
		}
	}
	function zoom_child(e, x, ratio) {
		if (e.attributes != undefined) {
			if (e.attributes.x != undefined) {
				orig_save(e, "x");
				e.attributes.x.value = (parseFloat(e.attributes.x.value) - x - 10) * ratio + 10;
				if (e.tagName == "text")
					e.attributes.x.value = find_child(e.parentNode, "rect[x]").attributes.x.value + 3;
			}
			if (e.attributes.width != undefined) {
				orig_save(e, "width");
				e.attributes.width.value = parseFloat(e.attributes.width.value) * ratio;
			}
		}

		if (e.childNodes == undefined) return;
		for (var i = 0, c = e.childNodes; i < c.length; i++) {
			zoom_child(c[i], x - 10, ratio);
		}
	}
	function zoom_parent(e) {
		if (e.attributes) {
			if (e.attributes.x != undefined) {
				orig_save(e, "x");
				e.attributes.x.value = 10;
			}
			if (e.attributes.width != undefined) {
				orig_save(e, "width");
				e.attributes.width.value = parseInt(svg.width.baseVal.value) - (10 * 2);
			}
		}
		if (e.childNodes == undefined) return;
		for (var i = 0, c = e.childNodes; i < c.length; i++) {
			zoom_parent(c[i]);
		}
	}
	function zoom(node) {
		var attr = find_child(node, "rect").attributes;
		var width = parseFloat(attr.width.value);
		var xmin = parseFloat(attr.x.value);
		var xmax = parseFloat(xmin + width);
		var ymin = parseFloat(attr.y.value);
		var ratio = (svg.width.baseVal.value - 2 * 10) / width;

		// XXX: Workaround for JavaScript float issues (fix me)
		var fudge = 0.0001;

		unzoombtn.classList.remove("hide");

		var el = document.getElementById("frames").children;
		for (var i = 0; i < el.length; i++) {
			var e = el[i];
			var a = find_child(e, "rect").attributes;
			var ex = parseFloat(a.x.value);
			var ew = parseFloat(a.width.value);
			var upstack;
			// Is it an ancestor
			if (0 == 0) {
				upstack = parseFloat(a.y.value) > ymin;
			} else {
				upstack = parseFloat(a.y.value) < ymin;
			}
			if (upstack) {
				// Direct ancestor
				if (ex <= xmin && (ex+ew+fudge) >= xmax) {
					e.classList.add("parent");
					zoom_parent(e);
					update_text(e);
				}
				// not in current path
				else
					e.classList.add("hide");
			}
			// Children maybe
			else {
				// no common path
				if (ex < xmin || ex + fudge >= xmax) {
					e.classList.add("hide");
				}
				else {
					zoom_child(e, xmin, ratio);
					update_text(e);
				}
			}
		}
		search();
	}
	function unzoom(dont_update_text) {
		unzoombtn.classList.add("hide");
		var el = document.getElementById("frames").children;
		for(var i = 0; i < el.length; i++) {
			el[i].classList.remove("parent");
			el[i].classList.remove("hide");
			zoom_reset(el[i]);
			if(!dont_update_text) update_text(el[i]);
		}
		search();
	}
	function clearzoom() {
		unzoom();

		// remove zoom state
		var params = get_params();
		if (params.x) delete params.x;
		if (params.y) delete params.y;
		history.replaceState(null, null, parse_params(params));
	}

	// search
	function toggle_ignorecase() {
		ignorecase = !ignorecase;
		if (ignorecase) {
			ignorecaseBtn.classList.add("show");
		} else {
			ignorecaseBtn.classList.remove("show");
		}
		reset_search();
		search();
	}
	function reset_search() {
		var el = document.querySelectorAll("#frames rect");
		for (var i = 0; i < el.length; i++) {
			orig_load(el[i], "fill")
		}
		var params = get_params();
		delete params.s;
		history.replaceState(null, null, parse_params(params));
	}
	function search_prompt() {
		if (!searching) {
			var term = prompt("Enter a search term (regexp " +
			    "allowed, eg: ^ext4_)"
			    + (ignorecase ? ", ignoring case" : "")
			    + "\nPress Ctrl-i to toggle case sensitivity", "");
			if (term != null) search(term);
		} else {
			reset_search();
			searching = 0;
			currentSearchTerm = null;
			searchbtn.classList.remove("show");
			searchbtn.firstChild.nodeValue = "Search"
			matchedtxt.classList.add("hide");
			matchedtxt.firstChild.nodeValue = ""
		}
	}
	function search(term) {
		if (term) currentSearchTerm = term;
		if (currentSearchTerm === null) return;

		var re = new RegExp(currentSearchTerm, ignorecase ? 'i' : '');
		var el = document.getElementById("frames").children;
		var matches = new Object();
		var maxwidth = 0;
		for (var i = 0; i < el.length; i++) {
			var e = el[i];
			var func = g_to_func(e);
			var rect = find_child(e, "rect");
			if (func == null || rect == null)
				continue;

			// Save max width. Only works as we have a root frame
			var w = parseFloat(rect.attributes.width.value);
			if (w > maxwidth)
				maxwidth = w;

			if (func.match(re)) {
				// highlight
				var x = parseFloat(rect.attributes.x.value);
				orig_save(rect, "fill");
				rect.attributes.fill.value = "rgb(230,0,230)";

				// remember matches
				if (matches[x] == undefined) {
					matches[x] = w;
				} else {
					if (w > matches[x]) {
						// overwrite with parent
						matches[x] = w;
					}
				}
				searching = 1;
			}
		}
		if (!searching)
			return;
		var params = get_params();
		params.s = currentSearchTerm;
		history.replaceState(null, null, parse_params(params));

		searchbtn.classList.add("show");
		searchbtn.firstChild.nodeValue = "Reset Search";

		// calculate percent matched, excluding vertical overlap
		var count = 0;
		var lastx = -1;
		var lastw = 0;
		var keys = Array();
		for (k in matches) {
			if (matches.hasOwnProperty(k))
				keys.push(k);
		}
		// sort the matched frames by their x location
		// ascending, then width descending
		keys.sort(function(a, b){
			return a - b;
		});
		// Step through frames saving only the biggest bottom-up frames
		// thanks to the sort order. This relies on the tree property
		// where children are always smaller than their parents.
		var fudge = 0.0001;	// JavaScript floating point
		for (var k in keys) {
			var x = parseFloat(keys[k]);
			var w = matches[keys[k]];
			if (x >= lastx + lastw - fudge) {
				count += w;
				lastx = x;
				lastw = w;
			}
		}
		// display matched percent
		matchedtxt.classList.remove("hide");
		var pct = 100 * count / maxwidth;
		if (pct != 100) pct = pct.toFixed(1)
		matchedtxt.firstChild.nodeValue = "Matched: " + pct + "%";
	}
]]>
</script>
<rect x="0.0" y="0" width="1200.0" height="454.0" fill="url(#background)"  />
<text id="title" x="600.00" y="24" >Flame Graph</text>
<text id="details" x="10.00" y="437" > </text>
<text id="unzoom" x="10.00" y="24" class="hide">Reset Zoom</text>
<text id="search" x="1090.00" y="24" >Search</text>
<text id="ignorecase" x="1174.00" y="24" >ic</text>
<text id="matched" x="1090.00" y="437" > </text>
<g id="frames">
<g >
<title>__tcp_transmit_skb (250,000 samples, 0.01%)</title><rect x="481.6" y="133" width="0.1" height="15.0" fill="rgb(231,122,29)" rx="2" ry="2" />
<text  x="484.62" y="143.5" ></text>
</g>
<g >
<title>bs_profile (2,662,750,000 samples, 100.00%)</title><rect x="10.0" y="389" width="1180.0" height="15.0" fill="rgb(209,21,5)" rx="2" ry="2" />
<text  x="13.00" y="399.5" >bs_profile</text>
</g>
<g >
<title>ip_local_deliver_finish (250,000 samples, 0.01%)</title><rect x="481.5" y="85" width="0.1" height="15.0" fill="rgb(225,95,22)" rx="2" ry="2" />
<text  x="484.51" y="95.5" ></text>
</g>
<g >
<title>napi_complete_done (250,000 samples, 0.01%)</title><rect x="481.5" y="197" width="0.1" height="15.0" fill="rgb(234,137,32)" rx="2" ry="2" />
<text  x="484.51" y="207.5" ></text>
</g>
<g >
<title>rcu_core_si (250,000 samples, 0.01%)</title><rect x="871.0" y="229" width="0.2" height="15.0" fill="rgb(237,150,36)" rx="2" ry="2" />
<text  x="874.04" y="239.5" ></text>
</g>
<g >
<title>erfcf32x (839,000,000 samples, 31.51%)</title><rect x="499.5" y="325" width="371.8" height="15.0" fill="rgb(239,159,38)" rx="2" ry="2" />
<text  x="502.46" y="335.5" >erfcf32x</text>
</g>
<g >
<title>rcu_do_batch (250,000 samples, 0.01%)</title><rect x="871.0" y="197" width="0.2" height="15.0" fill="rgb(220,73,17)" rx="2" ry="2" />
<text  x="874.04" y="207.5" ></text>
</g>
<g >
<title>[unknown] (1,000,000 samples, 0.04%)</title><rect x="1189.6" y="373" width="0.4" height="15.0" fill="rgb(210,24,5)" rx="2" ry="2" />
<text  x="1192.56" y="383.5" ></text>
</g>
<g >
<title>asm_sysvec_hyperv_callback (250,000 samples, 0.01%)</title><rect x="33.3" y="341" width="0.1" height="15.0" fill="rgb(247,194,46)" rx="2" ry="2" />
<text  x="36.27" y="351.5" ></text>
</g>
<g >
<title>__handle_mm_fault (250,000 samples, 0.01%)</title><rect x="10.0" y="277" width="0.1" height="15.0" fill="rgb(207,9,2)" rx="2" ry="2" />
<text  x="13.00" y="287.5" ></text>
</g>
<g >
<title>erfc@plt (40,000,000 samples, 1.50%)</title><rect x="481.7" y="325" width="17.8" height="15.0" fill="rgb(242,171,41)" rx="2" ry="2" />
<text  x="484.73" y="335.5" ></text>
</g>
<g >
<title>__tcp_send_ack.part.0 (250,000 samples, 0.01%)</title><rect x="481.6" y="149" width="0.1" height="15.0" fill="rgb(246,192,46)" rx="2" ry="2" />
<text  x="484.62" y="159.5" ></text>
</g>
<g >
<title>tcp_send_ack (250,000 samples, 0.01%)</title><rect x="481.6" y="165" width="0.1" height="15.0" fill="rgb(214,43,10)" rx="2" ry="2" />
<text  x="484.62" y="175.5" ></text>
</g>
<g >
<title>__exp_finite@plt (60,250,000 samples, 2.26%)</title><rect x="299.3" y="341" width="26.7" height="15.0" fill="rgb(209,20,4)" rx="2" ry="2" />
<text  x="302.27" y="351.5" >_..</text>
</g>
<g >
<title>ipv4_conntrack_local (250,000 samples, 0.01%)</title><rect x="481.6" y="53" width="0.1" height="15.0" fill="rgb(236,146,34)" rx="2" ry="2" />
<text  x="484.62" y="63.5" ></text>
</g>
<g >
<title>irq_exit_rcu (500,000 samples, 0.02%)</title><rect x="481.4" y="293" width="0.2" height="15.0" fill="rgb(254,227,54)" rx="2" ry="2" />
<text  x="484.40" y="303.5" ></text>
</g>
<g >
<title>netif_receive_skb_list_internal (250,000 samples, 0.01%)</title><rect x="481.5" y="181" width="0.1" height="15.0" fill="rgb(238,151,36)" rx="2" ry="2" />
<text  x="484.51" y="191.5" ></text>
</g>
<g >
<title>schedule (250,000 samples, 0.01%)</title><rect x="965.7" y="261" width="0.1" height="15.0" fill="rgb(254,229,54)" rx="2" ry="2" />
<text  x="968.65" y="271.5" ></text>
</g>
<g >
<title>__netif_receive_skb_list_core (250,000 samples, 0.01%)</title><rect x="481.5" y="165" width="0.1" height="15.0" fill="rgb(227,101,24)" rx="2" ry="2" />
<text  x="484.51" y="175.5" ></text>
</g>
<g >
<title>irq_exit_rcu (250,000 samples, 0.01%)</title><rect x="871.0" y="277" width="0.2" height="15.0" fill="rgb(254,227,54)" rx="2" ry="2" />
<text  x="874.04" y="287.5" ></text>
</g>
<g >
<title>sysvec_hyperv_callback (250,000 samples, 0.01%)</title><rect x="33.3" y="325" width="0.1" height="15.0" fill="rgb(234,135,32)" rx="2" ry="2" />
<text  x="36.27" y="335.5" ></text>
</g>
<g >
<title>exc_page_fault (250,000 samples, 0.01%)</title><rect x="10.0" y="325" width="0.1" height="15.0" fill="rgb(212,35,8)" rx="2" ry="2" />
<text  x="13.00" y="335.5" ></text>
</g>
<g >
<title>[libc.so.6] (2,661,500,000 samples, 99.95%)</title><rect x="10.1" y="373" width="1179.5" height="15.0" fill="rgb(223,84,20)" rx="2" ry="2" />
<text  x="13.11" y="383.5" >[libc.so.6]</text>
</g>
<g >
<title>sysvec_hyperv_stimer0 (250,000 samples, 0.01%)</title><rect x="481.6" y="309" width="0.1" height="15.0" fill="rgb(212,35,8)" rx="2" ry="2" />
<text  x="484.62" y="319.5" ></text>
</g>
<g >
<title>asm_exc_page_fault (250,000 samples, 0.01%)</title><rect x="10.0" y="341" width="0.1" height="15.0" fill="rgb(225,93,22)" rx="2" ry="2" />
<text  x="13.00" y="351.5" ></text>
</g>
<g >
<title>do_wp_page (250,000 samples, 0.01%)</title><rect x="10.0" y="245" width="0.1" height="15.0" fill="rgb(212,36,8)" rx="2" ry="2" />
<text  x="13.00" y="255.5" ></text>
</g>
<g >
<title>bs_call_price (52,500,000 samples, 1.97%)</title><rect x="10.1" y="357" width="23.3" height="15.0" fill="rgb(218,62,14)" rx="2" ry="2" />
<text  x="13.11" y="367.5" >b..</text>
</g>
<g >
<title>ip_local_deliver (250,000 samples, 0.01%)</title><rect x="481.5" y="101" width="0.1" height="15.0" fill="rgb(230,116,27)" rx="2" ry="2" />
<text  x="484.51" y="111.5" ></text>
</g>
<g >
<title>__irq_exit_rcu (250,000 samples, 0.01%)</title><rect x="871.0" y="261" width="0.2" height="15.0" fill="rgb(227,101,24)" rx="2" ry="2" />
<text  x="874.04" y="271.5" ></text>
</g>
<g >
<title>handle_softirqs (250,000 samples, 0.01%)</title><rect x="871.0" y="245" width="0.2" height="15.0" fill="rgb(238,156,37)" rx="2" ry="2" />
<text  x="874.04" y="255.5" ></text>
</g>
<g >
<title>netvsc_poll (250,000 samples, 0.01%)</title><rect x="481.5" y="213" width="0.1" height="15.0" fill="rgb(206,8,2)" rx="2" ry="2" />
<text  x="484.51" y="223.5" ></text>
</g>
<g >
<title>handle_mm_fault (250,000 samples, 0.01%)</title><rect x="10.0" y="293" width="0.1" height="15.0" fill="rgb(234,135,32)" rx="2" ry="2" />
<text  x="13.00" y="303.5" ></text>
</g>
<g >
<title>__napi_poll (250,000 samples, 0.01%)</title><rect x="481.5" y="229" width="0.1" height="15.0" fill="rgb(247,195,46)" rx="2" ry="2" />
<text  x="484.51" y="239.5" ></text>
</g>
<g >
<title>irqentry_exit_to_user_mode (250,000 samples, 0.01%)</title><rect x="965.7" y="277" width="0.1" height="15.0" fill="rgb(254,229,54)" rx="2" ry="2" />
<text  x="968.65" y="287.5" ></text>
</g>
<g >
<title>[ld-linux-x86-64.so.2] (250,000 samples, 0.01%)</title><rect x="10.0" y="373" width="0.1" height="15.0" fill="rgb(243,178,42)" rx="2" ry="2" />
<text  x="13.00" y="383.5" ></text>
</g>
<g >
<title>sysvec_hyperv_stimer0 (500,000 samples, 0.02%)</title><rect x="871.0" y="293" width="0.3" height="15.0" fill="rgb(212,35,8)" rx="2" ry="2" />
<text  x="874.04" y="303.5" ></text>
</g>
<g >
<title>[ld-linux-x86-64.so.2] (250,000 samples, 0.01%)</title><rect x="1189.6" y="325" width="0.1" height="15.0" fill="rgb(243,178,42)" rx="2" ry="2" />
<text  x="1192.56" y="335.5" ></text>
</g>
<g >
<title>__ip_queue_xmit (250,000 samples, 0.01%)</title><rect x="481.6" y="101" width="0.1" height="15.0" fill="rgb(253,223,53)" rx="2" ry="2" />
<text  x="484.62" y="111.5" ></text>
</g>
<g >
<title>__irq_exit_rcu (500,000 samples, 0.02%)</title><rect x="481.4" y="277" width="0.2" height="15.0" fill="rgb(227,101,24)" rx="2" ry="2" />
<text  x="484.40" y="287.5" ></text>
</g>
<g >
<title>ip_queue_xmit (250,000 samples, 0.01%)</title><rect x="481.6" y="117" width="0.1" height="15.0" fill="rgb(230,119,28)" rx="2" ry="2" />
<text  x="484.62" y="127.5" ></text>
</g>
<g >
<title>schedule (250,000 samples, 0.01%)</title><rect x="871.2" y="245" width="0.1" height="15.0" fill="rgb(254,229,54)" rx="2" ry="2" />
<text  x="874.15" y="255.5" ></text>
</g>
<g >
<title>[ld-linux-x86-64.so.2] (250,000 samples, 0.01%)</title><rect x="1189.6" y="341" width="0.1" height="15.0" fill="rgb(243,178,42)" rx="2" ry="2" />
<text  x="1192.56" y="351.5" ></text>
</g>
<g >
<title>irqentry_exit (250,000 samples, 0.01%)</title><rect x="299.2" y="293" width="0.1" height="15.0" fill="rgb(219,66,15)" rx="2" ry="2" />
<text  x="302.16" y="303.5" ></text>
</g>
<g >
<title>__schedule (250,000 samples, 0.01%)</title><rect x="965.7" y="245" width="0.1" height="15.0" fill="rgb(227,103,24)" rx="2" ry="2" />
<text  x="968.65" y="255.5" ></text>
</g>
<g >
<title>schedule (250,000 samples, 0.01%)</title><rect x="33.3" y="277" width="0.1" height="15.0" fill="rgb(254,229,54)" rx="2" ry="2" />
<text  x="36.27" y="287.5" ></text>
</g>
<g >
<title>[ld-linux-x86-64.so.2] (250,000 samples, 0.01%)</title><rect x="1189.6" y="357" width="0.1" height="15.0" fill="rgb(243,178,42)" rx="2" ry="2" />
<text  x="1192.56" y="367.5" ></text>
</g>
<g >
<title>main (2,609,000,000 samples, 97.98%)</title><rect x="33.4" y="357" width="1156.2" height="15.0" fill="rgb(243,179,42)" rx="2" ry="2" />
<text  x="36.38" y="367.5" >main</text>
</g>
<g >
<title>irqentry_exit (250,000 samples, 0.01%)</title><rect x="33.3" y="309" width="0.1" height="15.0" fill="rgb(219,66,15)" rx="2" ry="2" />
<text  x="36.27" y="319.5" ></text>
</g>
<g >
<title>__ip_local_out (250,000 samples, 0.01%)</title><rect x="481.6" y="69" width="0.1" height="15.0" fill="rgb(206,5,1)" rx="2" ry="2" />
<text  x="484.62" y="79.5" ></text>
</g>
<g >
<title>bs_call_price (1,295,500,000 samples, 48.65%)</title><rect x="336.2" y="341" width="574.1" height="15.0" fill="rgb(218,62,14)" rx="2" ry="2" />
<text  x="339.16" y="351.5" >bs_call_price</text>
</g>
<g >
<title>net_rx_action (250,000 samples, 0.01%)</title><rect x="481.5" y="245" width="0.1" height="15.0" fill="rgb(240,164,39)" rx="2" ry="2" />
<text  x="484.51" y="255.5" ></text>
</g>
<g >
<title>flush_tlb_mm_range (250,000 samples, 0.01%)</title><rect x="10.0" y="197" width="0.1" height="15.0" fill="rgb(215,48,11)" rx="2" ry="2" />
<text  x="13.00" y="207.5" ></text>
</g>
<g >
<title>__schedule (250,000 samples, 0.01%)</title><rect x="33.3" y="261" width="0.1" height="15.0" fill="rgb(227,103,24)" rx="2" ry="2" />
<text  x="36.27" y="271.5" ></text>
</g>
<g >
<title>do_user_addr_fault (250,000 samples, 0.01%)</title><rect x="10.0" y="309" width="0.1" height="15.0" fill="rgb(228,108,25)" rx="2" ry="2" />
<text  x="13.00" y="319.5" ></text>
</g>
<g >
<title>__schedule (250,000 samples, 0.01%)</title><rect x="299.2" y="245" width="0.1" height="15.0" fill="rgb(227,103,24)" rx="2" ry="2" />
<text  x="302.16" y="255.5" ></text>
</g>
<g >
<title>irqentry_exit_to_user_mode (250,000 samples, 0.01%)</title><rect x="299.2" y="277" width="0.1" height="15.0" fill="rgb(254,229,54)" rx="2" ry="2" />
<text  x="302.16" y="287.5" ></text>
</g>
<g >
<title>monte_carlo_call_price (450,750,000 samples, 16.93%)</title><rect x="965.8" y="341" width="199.7" height="15.0" fill="rgb(229,114,27)" rx="2" ry="2" />
<text  x="968.77" y="351.5" >monte_carlo_call_price</text>
</g>
<g >
<title>exp@plt (30,000,000 samples, 1.13%)</title><rect x="941.6" y="341" width="13.3" height="15.0" fill="rgb(228,107,25)" rx="2" ry="2" />
<text  x="944.61" y="351.5" ></text>
</g>
<g >
<title>irqentry_exit_to_user_mode (250,000 samples, 0.01%)</title><rect x="871.2" y="261" width="0.1" height="15.0" fill="rgb(254,229,54)" rx="2" ry="2" />
<text  x="874.15" y="271.5" ></text>
</g>
<g >
<title>[unknown] (750,000 samples, 0.03%)</title><rect x="1189.7" y="357" width="0.3" height="15.0" fill="rgb(210,24,5)" rx="2" ry="2" />
<text  x="1192.67" y="367.5" ></text>
</g>
<g >
<title>log (1,250,000 samples, 0.05%)</title><rect x="954.9" y="341" width="0.6" height="15.0" fill="rgb(233,130,31)" rx="2" ry="2" />
<text  x="957.91" y="351.5" ></text>
</g>
<g >
<title>security_cred_free (250,000 samples, 0.01%)</title><rect x="871.0" y="165" width="0.2" height="15.0" fill="rgb(225,92,22)" rx="2" ry="2" />
<text  x="874.04" y="175.5" ></text>
</g>
<g >
<title>finish_task_switch.isra.0 (250,000 samples, 0.01%)</title><rect x="965.7" y="229" width="0.1" height="15.0" fill="rgb(246,189,45)" rx="2" ry="2" />
<text  x="968.65" y="239.5" ></text>
</g>
<g >
<title>finish_task_switch.isra.0 (250,000 samples, 0.01%)</title><rect x="33.3" y="245" width="0.1" height="15.0" fill="rgb(246,189,45)" rx="2" ry="2" />
<text  x="36.27" y="255.5" ></text>
</g>
<g >
<title>asm_sysvec_hyperv_callback (500,000 samples, 0.02%)</title><rect x="481.4" y="325" width="0.2" height="15.0" fill="rgb(247,194,46)" rx="2" ry="2" />
<text  x="484.40" y="335.5" ></text>
</g>
<g >
<title>normal_cdf (88,000,000 samples, 3.30%)</title><rect x="871.3" y="325" width="39.0" height="15.0" fill="rgb(212,36,8)" rx="2" ry="2" />
<text  x="874.26" y="335.5" >nor..</text>
</g>
<g >
<title>ip_sublist_rcv_finish (250,000 samples, 0.01%)</title><rect x="481.5" y="117" width="0.1" height="15.0" fill="rgb(241,168,40)" rx="2" ry="2" />
<text  x="484.51" y="127.5" ></text>
</g>
<g >
<title>ip_protocol_deliver_rcu (250,000 samples, 0.01%)</title><rect x="481.5" y="69" width="0.1" height="15.0" fill="rgb(215,49,11)" rx="2" ry="2" />
<text  x="484.51" y="79.5" ></text>
</g>
<g >
<title>schedule (250,000 samples, 0.01%)</title><rect x="299.2" y="261" width="0.1" height="15.0" fill="rgb(254,229,54)" rx="2" ry="2" />
<text  x="302.16" y="271.5" ></text>
</g>
<g >
<title>tcp_delack_timer (250,000 samples, 0.01%)</title><rect x="481.6" y="197" width="0.1" height="15.0" fill="rgb(249,205,49)" rx="2" ry="2" />
<text  x="484.62" y="207.5" ></text>
</g>
<g >
<title>tcp_delack_timer_handler (250,000 samples, 0.01%)</title><rect x="481.6" y="181" width="0.1" height="15.0" fill="rgb(244,181,43)" rx="2" ry="2" />
<text  x="484.62" y="191.5" ></text>
</g>
<g >
<title>__log_finite@plt (23,000,000 samples, 0.86%)</title><rect x="326.0" y="341" width="10.2" height="15.0" fill="rgb(230,117,28)" rx="2" ry="2" />
<text  x="328.97" y="351.5" ></text>
</g>
<g >
<title>exp (70,750,000 samples, 2.66%)</title><rect x="910.3" y="341" width="31.3" height="15.0" fill="rgb(212,34,8)" rx="2" ry="2" />
<text  x="913.26" y="351.5" >exp</text>
</g>
<g >
<title>__irq_exit_rcu (250,000 samples, 0.01%)</title><rect x="481.6" y="277" width="0.1" height="15.0" fill="rgb(227,101,24)" rx="2" ry="2" />
<text  x="484.62" y="287.5" ></text>
</g>
<g >
<title>rcu_core (250,000 samples, 0.01%)</title><rect x="871.0" y="213" width="0.2" height="15.0" fill="rgb(222,81,19)" rx="2" ry="2" />
<text  x="874.04" y="223.5" ></text>
</g>
<g >
<title>asm_sysvec_hyperv_callback (250,000 samples, 0.01%)</title><rect x="299.2" y="325" width="0.1" height="15.0" fill="rgb(247,194,46)" rx="2" ry="2" />
<text  x="302.16" y="335.5" ></text>
</g>
<g >
<title>__run_timers.part.0 (250,000 samples, 0.01%)</title><rect x="481.6" y="229" width="0.1" height="15.0" fill="rgb(215,49,11)" rx="2" ry="2" />
<text  x="484.62" y="239.5" ></text>
</g>
<g >
<title>[libm.so.6] (460,000,000 samples, 17.28%)</title><rect x="95.4" y="341" width="203.9" height="15.0" fill="rgb(208,16,4)" rx="2" ry="2" />
<text  x="98.42" y="351.5" >[libm.so.6]</text>
</g>
<g >
<title>irq_exit_rcu (250,000 samples, 0.01%)</title><rect x="481.6" y="293" width="0.1" height="15.0" fill="rgb(254,227,54)" rx="2" ry="2" />
<text  x="484.62" y="303.5" ></text>
</g>
<g >
<title>[ld-linux-x86-64.so.2] (750,000 samples, 0.03%)</title><rect x="1189.7" y="341" width="0.3" height="15.0" fill="rgb(243,178,42)" rx="2" ry="2" />
<text  x="1192.67" y="351.5" ></text>
</g>
<g >
<title>ip_sublist_rcv (250,000 samples, 0.01%)</title><rect x="481.5" y="133" width="0.1" height="15.0" fill="rgb(246,189,45)" rx="2" ry="2" />
<text  x="484.51" y="143.5" ></text>
</g>
<g >
<title>asm_sysvec_hyperv_stimer0 (250,000 samples, 0.01%)</title><rect x="965.7" y="325" width="0.1" height="15.0" fill="rgb(225,94,22)" rx="2" ry="2" />
<text  x="968.65" y="335.5" ></text>
</g>
<g >
<title>put_cred_rcu (250,000 samples, 0.01%)</title><rect x="871.0" y="181" width="0.2" height="15.0" fill="rgb(251,213,50)" rx="2" ry="2" />
<text  x="874.04" y="191.5" ></text>
</g>
<g >
<title>wp_page_copy (250,000 samples, 0.01%)</title><rect x="10.0" y="229" width="0.1" height="15.0" fill="rgb(214,42,10)" rx="2" ry="2" />
<text  x="13.00" y="239.5" ></text>
</g>
<g >
<title>ptep_clear_flush (250,000 samples, 0.01%)</title><rect x="10.0" y="213" width="0.1" height="15.0" fill="rgb(207,11,2)" rx="2" ry="2" />
<text  x="13.00" y="223.5" ></text>
</g>
<g >
<title>[ld-linux-x86-64.so.2] (250,000 samples, 0.01%)</title><rect x="10.0" y="357" width="0.1" height="15.0" fill="rgb(243,178,42)" rx="2" ry="2" />
<text  x="13.00" y="367.5" ></text>
</g>
<g >
<title>irqentry_exit (250,000 samples, 0.01%)</title><rect x="965.7" y="293" width="0.1" height="15.0" fill="rgb(219,66,15)" rx="2" ry="2" />
<text  x="968.65" y="303.5" ></text>
</g>
<g >
<title>handle_softirqs (250,000 samples, 0.01%)</title><rect x="481.6" y="261" width="0.1" height="15.0" fill="rgb(238,156,37)" rx="2" ry="2" />
<text  x="484.62" y="271.5" ></text>
</g>
<g >
<title>tcp_v4_rcv (250,000 samples, 0.01%)</title><rect x="481.5" y="53" width="0.1" height="15.0" fill="rgb(237,148,35)" rx="2" ry="2" />
<text  x="484.51" y="63.5" ></text>
</g>
<g >
<title>__xfrm_policy_check2.constprop.0 (250,000 samples, 0.01%)</title><rect x="481.5" y="37" width="0.1" height="15.0" fill="rgb(214,44,10)" rx="2" ry="2" />
<text  x="484.51" y="47.5" ></text>
</g>
<g >
<title>ip_list_rcv (250,000 samples, 0.01%)</title><rect x="481.5" y="149" width="0.1" height="15.0" fill="rgb(227,105,25)" rx="2" ry="2" />
<text  x="484.51" y="159.5" ></text>
</g>
<g >
<title>finish_task_switch.isra.0 (250,000 samples, 0.01%)</title><rect x="871.2" y="213" width="0.1" height="15.0" fill="rgb(246,189,45)" rx="2" ry="2" />
<text  x="874.15" y="223.5" ></text>
</g>
<g >
<title>sysvec_hyperv_callback (250,000 samples, 0.01%)</title><rect x="299.2" y="309" width="0.1" height="15.0" fill="rgb(234,135,32)" rx="2" ry="2" />
<text  x="302.16" y="319.5" ></text>
</g>
<g >
<title>ip_local_out (250,000 samples, 0.01%)</title><rect x="481.6" y="85" width="0.1" height="15.0" fill="rgb(233,131,31)" rx="2" ry="2" />
<text  x="484.62" y="95.5" ></text>
</g>
<g >
<title>log@plt (23,250,000 samples, 0.87%)</title><rect x="955.5" y="341" width="10.3" height="15.0" fill="rgb(249,204,48)" rx="2" ry="2" />
<text  x="958.46" y="351.5" ></text>
</g>
<g >
<title>call_timer_fn (250,000 samples, 0.01%)</title><rect x="481.6" y="213" width="0.1" height="15.0" fill="rgb(234,135,32)" rx="2" ry="2" />
<text  x="484.62" y="223.5" ></text>
</g>
<g >
<title>__schedule (250,000 samples, 0.01%)</title><rect x="871.2" y="229" width="0.1" height="15.0" fill="rgb(227,103,24)" rx="2" ry="2" />
<text  x="874.15" y="239.5" ></text>
</g>
<g >
<title>normal_cdf (38,000,000 samples, 1.43%)</title><rect x="1165.5" y="341" width="16.9" height="15.0" fill="rgb(212,36,8)" rx="2" ry="2" />
<text  x="1168.52" y="351.5" ></text>
</g>
<g >
<title>all (2,662,750,000 samples, 100%)</title><rect x="10.0" y="405" width="1180.0" height="15.0" fill="rgb(213,39,9)" rx="2" ry="2" />
<text  x="13.00" y="415.5" ></text>
</g>
<g >
<title>irqentry_exit_to_user_mode (250,000 samples, 0.01%)</title><rect x="33.3" y="293" width="0.1" height="15.0" fill="rgb(254,229,54)" rx="2" ry="2" />
<text  x="36.27" y="303.5" ></text>
</g>
<g >
<title>handle_pte_fault (250,000 samples, 0.01%)</title><rect x="10.0" y="261" width="0.1" height="15.0" fill="rgb(217,57,13)" rx="2" ry="2" />
<text  x="13.00" y="271.5" ></text>
</g>
<g >
<title>asm_sysvec_hyperv_stimer0 (500,000 samples, 0.02%)</title><rect x="871.0" y="309" width="0.3" height="15.0" fill="rgb(225,94,22)" rx="2" ry="2" />
<text  x="874.04" y="319.5" ></text>
</g>
<g >
<title>sysvec_hyperv_callback (500,000 samples, 0.02%)</title><rect x="481.4" y="309" width="0.2" height="15.0" fill="rgb(234,135,32)" rx="2" ry="2" />
<text  x="484.40" y="319.5" ></text>
</g>
<g >
<title>std::mersenne_twister_engine&lt;unsigned long, 32ul, 624ul, 397ul, 31ul, 2567483615ul, 11ul, 4294967295ul, 7ul, 2636928640ul, 15ul, 4022730752ul, 18ul, 1812433253ul&gt;::_M_gen_rand (16,250,000 samples, 0.61%)</title><rect x="1182.4" y="341" width="7.2" height="15.0" fill="rgb(207,12,3)" rx="2" ry="2" />
<text  x="1185.36" y="351.5" ></text>
</g>
<g >
<title>run_timer_softirq (250,000 samples, 0.01%)</title><rect x="481.6" y="245" width="0.1" height="15.0" fill="rgb(249,206,49)" rx="2" ry="2" />
<text  x="484.62" y="255.5" ></text>
</g>
<g >
<title>sysvec_hyperv_stimer0 (250,000 samples, 0.01%)</title><rect x="965.7" y="309" width="0.1" height="15.0" fill="rgb(212,35,8)" rx="2" ry="2" />
<text  x="968.65" y="319.5" ></text>
</g>
<g >
<title>finish_task_switch.isra.0 (250,000 samples, 0.01%)</title><rect x="299.2" y="229" width="0.1" height="15.0" fill="rgb(246,189,45)" rx="2" ry="2" />
<text  x="302.16" y="239.5" ></text>
</g>
<g >
<title>handle_softirqs (500,000 samples, 0.02%)</title><rect x="481.4" y="261" width="0.2" height="15.0" fill="rgb(238,156,37)" rx="2" ry="2" />
<text  x="484.40" y="271.5" ></text>
</g>
<g >
<title>kfree (250,000 samples, 0.01%)</title><rect x="871.0" y="149" width="0.2" height="15.0" fill="rgb(222,78,18)" rx="2" ry="2" />
<text  x="874.04" y="159.5" ></text>
</g>
<g >
<title>asm_sysvec_hyperv_stimer0 (250,000 samples, 0.01%)</title><rect x="481.6" y="325" width="0.1" height="15.0" fill="rgb(225,94,22)" rx="2" ry="2" />
<text  x="484.62" y="335.5" ></text>
</g>
<g >
<title>irqentry_exit (250,000 samples, 0.01%)</title><rect x="871.2" y="277" width="0.1" height="15.0" fill="rgb(219,66,15)" rx="2" ry="2" />
<text  x="874.15" y="287.5" ></text>
</g>
</g>
</svg>
